<svg data-name="Layer 1" viewBox="0 0 24 24" xmlns="http://www.w3.org/2000/svg"><path d="m15.79 13.66-2.24-1.49-1.1 1.66 3.76 2.51 4.57-5.71-1.56-1.25-3.43 4.28zM4 6h16v2H4zM4 16h9v2H4zM4 11h8v2H4zM18 16h2v2h-2z" fill="#d40818" class="fill-000000"></path><path d="M20.44 1H3.56A2.56 2.56 0 0 0 1 3.56v16.88A2.56 2.56 0 0 0 3.56 23h16.88A2.56 2.56 0 0 0 23 20.44V3.56A2.56 2.56 0 0 0 20.44 1ZM21 20.44a.56.56 0 0 1-.56.56H3.56a.56.56 0 0 1-.56-.56V3.56A.56.56 0 0 1 3.56 3h16.88a.56.56 0 0 1 .56.56Z" fill="#d40818" class="fill-000000"></path></svg>